<svg xmlns="http://www.w3.org/2000/svg" xmlns:xlink="http://www.w3.org/1999/xlink" width="25" height="24" viewBox="0 0 25 24"><defs><path id="a" d="M14.987 6.667H3.819l4.8-4.77a1.106 1.106 0 0 0 0-1.572 1.124 1.124 0 0 0-1.581 0L.328 6.992a1.106 1.106 0 0 0 0 1.572l6.71 6.666a1.119 1.119 0 0 0 1.582 0 1.106 1.106 0 0 0 0-1.571l-4.801-4.77h11.168c.617 0 1.118-.498 1.118-1.111 0-.614-.5-1.111-1.118-1.111"/></defs><use fill="#00DB53" fill-rule="evenodd" transform="rotate(-180 10 10)" xlink:href="#a"/></svg>