<svg xmlns="http://www.w3.org/2000/svg" width="24" height="24" viewBox="0 0 24 24"><defs><linearGradient id="a" x1="50%" x2="50%" y1="99.709%" y2=".777%"><stop offset="0%" stop-color="#E09B3D"/><stop offset="30%" stop-color="#C74C4D"/><stop offset="60%" stop-color="#C21975"/><stop offset="100%" stop-color="#7024C4"/></linearGradient><linearGradient id="b" x1="50%" x2="50%" y1="146.099%" y2="-45.16%"><stop offset="0%" stop-color="#E09B3D"/><stop offset="30%" stop-color="#C74C4D"/><stop offset="60%" stop-color="#C21975"/><stop offset="100%" stop-color="#7024C4"/></linearGradient><linearGradient id="c" x1="50%" x2="50%" y1="658.141%" y2="-140.029%"><stop offset="0%" stop-color="#E09B3D"/><stop offset="30%" stop-color="#C74C4D"/><stop offset="60%" stop-color="#C21975"/><stop offset="100%" stop-color="#7024C4"/></linearGradient></defs><g fill="none" transform="translate(2 2)"><path fill="url(#a)" d="M14.042 0H5.958C2.673 0 0 2.806 0 6.256v8.488C0 18.194 2.673 21 5.958 21h8.084C17.327 21 20 18.194 20 14.744V6.256C20 2.806 17.327 0 14.042 0zM18 14.683c0 2.329-1.798 4.217-4.016 4.217H5.756c-2.219 0-4.017-1.888-4.017-4.217v-8.64c0-2.329 1.798-4.217 4.017-4.217h8.228C16.202 1.826 18 3.714 18 6.043v8.64z"/><path fill="url(#b)" d="M9.5 5A5.506 5.506 0 0 0 4 10.5C4 13.533 6.467 16 9.5 16s5.5-2.467 5.5-5.5S12.533 5 9.5 5zm-.083 9a3.583 3.583 0 1 1 0-7.167 3.583 3.583 0 0 1 0 7.167z"/><circle cx="14.5" cy="4.5" r="1.5" fill="url(#c)"/></g></svg>