<svg xmlns="http://www.w3.org/2000/svg" xmlns:xlink="http://www.w3.org/1999/xlink" width="64" height="64" viewBox="0 0 64 64"><defs><path id="a" d="M16 16.278a4 4 0 1 1 0-8 4 4 0 0 1 0 8m-.001-13.612c-5.236 0-9.332 3.956-9.332 9.046 0 6.449 5.928 13.538 8.334 16.133a1.346 1.346 0 0 0 1.988-.007c2.404-2.617 8.344-9.677 8.344-16.313 0-4.647-3.786-8.859-9.334-8.859"/></defs><g fill="none" fill-rule="evenodd"><circle cx="32" cy="32" r="32" fill="#00D450" opacity=".05"/><g transform="translate(16 16)"><path d="M0 0h32v32H0z"/><mask id="b" fill="#fff"><use xlink:href="#a"/></mask><use fill="#9FA6B0" xlink:href="#a"/><g fill="#00D450" fill-rule="nonzero" mask="url(#b)"><path d="M1 1h29v29H1z"/></g></g></g></svg>