<svg xmlns="http://www.w3.org/2000/svg" xmlns:xlink="http://www.w3.org/1999/xlink" width="24" height="24" viewBox="0 0 24 24"><defs><path id="b" d="M0 0h1440v69H0z"/><filter id="a" width="111.8%" height="346.4%" x="-7.3%" y="-120.3%" filterUnits="objectBoundingBox"><feOffset dx="-20" dy="2" in="SourceAlpha" result="shadowOffsetOuter1"/><feGaussianBlur in="shadowOffsetOuter1" result="shadowBlurOuter1" stdDeviation="25"/><feColorMatrix in="shadowBlurOuter1" values="0 0 0 0 0 0 0 0 0 0 0 0 0 0 0 0 0 0 0.05 0"/></filter></defs><g fill="none"><g transform="translate(-1297 -23)"><use fill="#000" filter="url(#a)" xlink:href="#b"/><use fill="#FFF" xlink:href="#b"/></g><path fill="#F61C0D" d="M18.322 4H5.54C3.033 4 1 6.008 1 8.484v6.31c0 2.476 2.033 4.484 4.54 4.484h12.782c2.507 0 4.54-2.008 4.54-4.484v-6.31c0-2.476-2.033-4.484-4.54-4.484zm-2.672 7.517l-5.978 2.816a.24.24 0 0 1-.344-.214V8.31a.24.24 0 0 1 .349-.211l5.978 2.992a.236.236 0 0 1-.005.425z"/></g></svg>